/* XPM */
static char *f7f2e0f4c70c4f94d8ec8aff5ae8f5e7Ll4Xjcocy6CzmNHa[] = {
/* columns rows colors chars-per-pixel */
"30 30 108 2 ",
"   c None",
".  c black",
"X  c #6D010C",
"o  c #233849",
"O  c #3A4249",
"+  c #4F5962",
"@  c #555B62",
"#  c #595F65",
"$  c #536164",
"%  c #5A6167",
"&  c #5E666C",
"*  c #5F6772",
"=  c #567079",
"-  c #60666D",
";  c #6D666D",
":  c #61696F",
">  c #646B72",
",  c #656E7C",
"<  c #687077",
"1  c #677079",
"2  c #6B727A",
"3  c #B10000",
"4  c #D70000",
"5  c #F10006",
"6  c #AB3A43",
"7  c #DF4C52",
"8  c #F25F64",
"9  c #727780",
"0  c #767C83",
"q  c #9A7880",
"w  c #A27A81",
"e  c #778087",
"r  c #7D8285",
"t  c #7B838B",
"y  c #7E8E98",
"u  c #828485",
"i  c #81878D",
"p  c #86898B",
"a  c #858C94",
"s  c #8A8D90",
"d  c #878F9A",
"f  c #888F98",
"g  c #928F97",
"h  c #8D9195",
"j  c #859199",
"k  c #8C939B",
"l  c #8E999F",
"z  c #939697",
"x  c #949C94",
"c  c #9D9E97",
"v  c #91979F",
"b  c #969B9B",
"n  c #999C9D",
"m  c #A09D9D",
"M  c #A9A99A",
"N  c #BDA19D",
"B  c #BAB693",
"V  c #8E96A2",
"C  c #949BA3",
"Z  c #999EA4",
"A  c #989FA8",
"S  c #B99EA0",
"D  c #9BA0A5",
"F  c #91A5AE",
"G  c #9BA2AA",
"H  c #9FA7B0",
"J  c #9EAFB5",
"K  c #ACA2A2",
"L  c #A3A7AB",
"P  c #A7AAAE",
"I  c #AAACAE",
"U  c #A0A7B0",
"Y  c #A0A8B1",
"T  c #A7AFB8",
"R  c #AEB1B4",
"E  c #B2B4B3",
"W  c #B7B9BA",
"Q  c #BCBDBE",
"!  c #DC8587",
"~  c #D68B8D",
"^  c #C09C97",
"/  c #CFBABB",
"(  c #CDC787",
")  c #E2D18D",
"_  c #CECAB6",
"`  c #BEBFC2",
"'  c #BEC0C0",
"]  c #C3C5C6",
"[  c #C7C7C9",
"{  c #C6C8CB",
"}  c #CBCCCD",
"|  c #CECFD1",
" . c #CDD1D2",
".. c #CDD7D8",
"X. c #D2D3D4",
"o. c #D6D7D8",
"O. c #D7D9DA",
"+. c #DCDDDE",
"@. c #E9DFDD",
"#. c #DFE1E1",
"$. c #E4E4E5",
"%. c #E7E7E8",
"&. c #E7E8E8",
"*. c #EBECED",
"=. c #F1EEEE",
"-. c #F2F3F3",
";. c #F5F8F9",
":. c #FEFEFE",
/* pixels */
"                                                            ",
"      Q             k                                       ",
"      :. .        + , r -     z &.m                         ",
"[ :.    :.      , k r t k a 0 -.@.                          ",
"  o.*.#.=.X.  B _ ) c d D g N =.N   $.%.                    ",
"    %.:.E Q E x ( ) V V Z D K :.-.&.+.                      ",
"] -.-.:.o.' X.*.M a a t %.-.-.-.:.:.[                       ",
"      +.&.O... .= o n L D s $.:.-.:.%.#.                    ",
"      t y S ! 6 X . b o.> 0 2 O.*.I                         ",
"      k j 4 5 7 8 3 $ ] k G k > t d 9                       ",
"      C a w q C / ~ K G C v G Z k G G >                     ",
"      t G F F G J J R k C C k C G C G Z           ] O.}     ",
"        % ; ;     2 v R j C k 0 t V G H >     > k #.:.&.%.W ",
"                  b [ X.L f G k               k G 0         ",
"                  g O.X.} Z k G Z 2         @ G k           ",
"                    ` | X.} Z f D Y k >     : G a           ",
"                    z O.} | | P f C A G V > O v Z           ",
"                      { o.{ | | W k k Z Z G f - k %         ",
"                      p O.| { | X.} Z f C C Z k >           ",
"                        n X.X.} } | | n k C C G t           ",
"                      f t D } X.X.| X.] f C C C C 0         ",
"                  - k U D f Z ] o.+.+.X.Z Z C V Z G f       ",
"                  e T G C Z f 2 0 n n h 0 k G A V C G k     ",
"                    * j C Z 2               - a Z C Z k     ",
"                I #.} Z v f t                 f Z G k       ",
"              ' :.*.:.:.&.X.-.}             2 k k 0         ",
"                *.:.:.:.:.:.:.W             +.X.X.$.$.%.X.  ",
"                X.*.%.&.O.Q p               :.:.:.:.:.X.-.} ",
"                                            u X.:.:.:.:.#.P ",
"                                                  } +.%.E   "
};
