/* XPM */
static char *_ebc4642000842d8d3ddf810b75e3e51KlyJIQ0pSPH1h8vu[] = {
/* columns rows colors chars-per-pixel */
"30 30 104 2 ",
"   c #010105",
".  c #01060C",
"X  c #191E24",
"o  c #24272E",
"O  c #27282C",
"+  c #282828",
"@  c #312D2E",
"#  c #2B2E33",
"$  c #2F3234",
"%  c #32353B",
"&  c #373C42",
"*  c #3A3D43",
"=  c #434344",
"-  c #41454C",
";  c #45484D",
":  c #4F4D4E",
">  c #4C5157",
",  c #4D535A",
"<  c #54565C",
"1  c #5C5B5D",
"2  c #575C62",
"3  c #5A5D63",
"4  c #5D6167",
"5  c #5C646C",
"6  c #626262",
"7  c #64666B",
"8  c #65686D",
"9  c #6A6B6D",
"0  c #76736C",
"q  c #636B73",
"w  c #6A6E74",
"e  c #6C7177",
"r  c #6C7278",
"t  c #757477",
"y  c #7A7A76",
"u  c #75767A",
"i  c #747879",
"p  c #7C7D7E",
"a  c #757E87",
"s  c #7B7D81",
"d  c #767F88",
"f  c #7D8381",
"g  c #7E858D",
"h  c #828284",
"j  c #86878B",
"k  c #848A8C",
"l  c #8C8B8C",
"z  c #938D8D",
"x  c #878A91",
"c  c #898C92",
"v  c #8F939C",
"b  c #939393",
"n  c #9C9794",
"m  c #9B9992",
"M  c #9F9699",
"N  c #93989E",
"B  c #9B9A9A",
"V  c #A09D96",
"C  c #A09E9F",
"Z  c #9FA2A9",
"A  c #A1A1A1",
"S  c #AAA3A5",
"D  c #A4A7AC",
"F  c #ADA7A9",
"G  c #ABABAC",
"H  c #ACAFB4",
"J  c #ACB1B7",
"K  c #B4B4B3",
"L  c #B4B8B7",
"P  c #BBB7B8",
"I  c #BBBEBD",
"U  c #C1BEB5",
"Y  c #BCC5C2",
"T  c #C2C3C4",
"R  c #C2C5CA",
"E  c #C3CCC9",
"W  c #CCCDCD",
"Q  c #D0CFCB",
"!  c #C8CBD2",
"~  c #CFD2D4",
"^  c #D4D4D4",
"/  c #DEDBD6",
"(  c #DCDBDB",
")  c #D8E1DE",
"_  c #D9DCE5",
"`  c #E4DEE0",
"'  c #DEE2E4",
"]  c #E4E4E4",
"[  c #EDEAE3",
"{  c #E2E5EA",
"}  c #ECE7E9",
"|  c #E7EAEF",
" . c #ECECEC",
".. c #F2EEEF",
"X. c #EDEEF1",
"o. c #EDF0F5",
"O. c #F4F4F4",
"+. c #F8F4F5",
"@. c #F4F8F7",
"#. c #FEFBF6",
"$. c #F6F6F9",
"%. c #FAF7FA",
"&. c #F6FAFB",
"*. c #FDFDFD",
/* pixels */
"*.*.*.*.*.*.*.*.$.$.*.*.*.*.$.*.*.*.*.*.*.*.*.*.*.*.*.*.*.*.",
"*.*.*.*.*.*.*.*.*.*.O...*.*.*.*.*.*.*.*.*.*.*.*.*.*.*.*.*.*.",
"*.*.*.*.*.*.*.*.O.*.*.*.+.*.$.O.*.*.*.*.*.*.*.*.*.*.*.*.*.*.",
"*.*.*.*.*.*.*.*.*.*.O.*. .O.$.*.*.*.*.*.*.*.*.*.*.*.*.*.*.*.",
"*.*.*.*.*.*.*.*.*.*. .*.*.*.*.*.*.*.*.*.*.*.*.*.*.*.*.*.*.*.",
"*.*.*.*.*.*.*.*.$.O.*.*.( ( *.} *.*.*.*.*.*.*.%.*.*.*.*.*.*.",
"*.*.*.*.*.*.*.*.*. .*.*.A 6 ( *.*.#.*.$.*.*.*.*.*.*.*.*.*.*.",
"*.*.*.*.*.*.*.*.O.*...$.*.+ = o.*.$.*.*.*.*.*.*.*.*.*.*.*.*.",
"*.*.*.*.*.*.*.*.*.O.*.X.$.x . k X.*.*.&.%.*.*.*.*.*.*.*.*.*.",
"*.*.*.*.*.*.*.*.*.*.O.*.&.Z X . R { &.*.*.*.O...*.*.*.*.*.*.",
"*.*.*.*.*.*.*.*.%.*.*.*.X.* , 3 r g v J { *.*.*.*.*.*.*.*.*.",
"*.*.*.*.*.*.*.*.*.O.*.&.D o 2 r 5 q 5 q N ! X.*.O.*.*.*.*.*.",
"*.*.*.*.*.*.*.*.%.*.*.T # q 7 - q a a w r x H ~ O.*.*.O.*.*.",
"*.*.*.*.*.*.*.*. .*.X.= # 3 , w , 8 w w u u 6 1 ( *.*.O.*.*.",
"*.*.*.*.*.*.*.*.*.$.s O s < & 3 7 w 7 9 s y : @ Z } *.O.*.*.",
"*.*.*.*.*.*.*.*.*.G   t & 2 d r s c l p h l z m 9 ^ *.$.*.*.",
"} *.*.*.*.O.O.*._ - < 7 1 y 0 m G L B F F P F V ( l T *.O. .",
"*.*.O.*.*.O.*.*.c % 3 u y m V U T ( l A [ } ` S ^ Q O.*.*.*.",
"*.*.*.*.*.O.*.^ * ; j G K Q / [ ` Q = L *.*.+.( Y ..*.O.*.*.",
"O.*.*.*.} *.*.l % f R ] ..$.#.#.@.I @ ] *.%.} *.W } O.O.*.*.",
"*.*.*.*.*.*.^ = i E @.*.*.*.*...*.L p *.` *.O.*.*.O.*.*.*.O.",
"O.%.*.*. .W b 6 ~ *.*.*.*.*.*.+.@.k I *.*.*.%.+.*.O.*.*.O.*.",
"*.*. .G m l h W *.*.*.*.*.%.*.*.) f ) *.*.o.%.*.O.O.*.O.O.*.",
"O.$.) z A K j ( *. .*.*.*.*.%.*.E Y *.*.$.*.*.*.*.*.*.*.*.*.",
"O.*.O...*.( K ( *.$.*.*.*.*.*.*.@.$.#.*.*.*.*.*.*.*.*.*.*.*.",
"*.*.$.*.*.O.( $.*.*.*.*.*.*.*.O.$.*.*.*.*.*.*.*.*.*.*.*.*.*.",
"*.*.*.$.*.*.O.*.$.*.*.*.*.*.*.*.$.@.*.*.*.*.*.*.*.*.*.*.*.*.",
"*.#.*.$.O.*.*.*.*.*.*.*.*.*.*.*.*.*.*.*.*.*.*.*.*.*.*.*.*.*.",
"*.*.*.*.*.*.*.O.#.*.*.*.*.*.*.*.*.*.*.*.*.*.*.*.*.*.*.*.*.*.",
"*.*.*.*.*.*.*.*.*.*.*.*.*.*.*.*.*.*.*.*.*.*.*.*.*.*.*.*.*.*."
};
