/* XPM */
static char *_52f3acaa20c4eb3d105692854f27d42Ib7tUjVfVFjoyWBg[] = {
/* columns rows colors chars-per-pixel */
"30 30 188 2 ",
"   c #6C365D",
".  c #744747",
"X  c #AB0000",
"o  c #B60000",
"O  c #BC0000",
"+  c #B30B05",
"@  c #B91F00",
"#  c #AC1211",
"$  c #BD2500",
"%  c #BD2318",
"&  c #8E3934",
"*  c #AB2F31",
"=  c #B43B3A",
"-  c #C20000",
";  c #CC0000",
":  c #D50000",
">  c #DB0000",
",  c #CC1404",
"<  c #D31708",
"1  c #D80D12",
"2  c #CB181B",
"3  c #DB1515",
"4  c #E30100",
"5  c #EB0000",
"6  c #EC050A",
"7  c #F30000",
"8  c #FB0000",
"9  c #F30902",
"0  c #F60C0B",
"q  c #FA180B",
"w  c #E70011",
"e  c #E51417",
"r  c #EF1515",
"t  c #EC1B1C",
"y  c #F11413",
"u  c #FB1716",
"i  c #F51C1B",
"p  c #FD1D1A",
"a  c #D2270A",
"s  c #D83906",
"d  c #D53E16",
"f  c #E42C00",
"g  c #EC3700",
"h  c #E43608",
"j  c #F73B00",
"k  c #E7241B",
"l  c #F52219",
"z  c #FB211C",
"x  c #EE2422",
"c  c #F52524",
"v  c #EF3A3A",
"b  c #F33838",
"n  c #904515",
"m  c #BC5C03",
"M  c #E8490C",
"N  c #F34905",
"B  c #EB5407",
"V  c #F45503",
"C  c #F95A04",
"Z  c #F35A09",
"A  c #F44E15",
"S  c #EC561B",
"D  c #FB5410",
"F  c #D67000",
"G  c #DA6E19",
"H  c #FB6300",
"J  c #F66D06",
"K  c #FD6B01",
"L  c #ED7108",
"P  c #FC7200",
"I  c #FE7904",
"U  c #FF7208",
"Y  c #FF7E09",
"T  c #F46C17",
"R  c #E37819",
"E  c #FF7315",
"W  c #FE7B13",
"Q  c #F5781D",
"!  c #FB5925",
"~  c #F65735",
"^  c #F36A3B",
"/  c #F8753B",
"(  c #B54344",
")  c #956157",
"_  c #BC6666",
"`  c #DA4947",
"'  c #DB5755",
"]  c #E84442",
"[  c #F85F41",
"{  c #E65A59",
"}  c #EA6953",
"|  c #F6755B",
" . c #D96C6A",
".. c #D67878",
"X. c #E86B6B",
"o. c #F66C67",
"O. c #EB7676",
"+. c #E37C7C",
"@. c #F07976",
"#. c #F48503",
"$. c #F38707",
"%. c #FD8400",
"&. c #FC8D00",
"*. c #FE8508",
"=. c #FD8B0B",
"-. c #F79403",
";. c #FC9600",
":. c #FE9A02",
">. c #FB950A",
",. c #FD9A0A",
"<. c #FC8C15",
"1. c #FD9416",
"2. c #FD9C13",
"3. c #FD9D1C",
"4. c #FEA00C",
"5. c #FEA31B",
"6. c #FE8E27",
"7. c #FA9726",
"8. c #F38832",
"9. c #F89635",
"0. c #FEA624",
"q. c #FEA82A",
"w. c #E28D46",
"e. c #F58651",
"r. c #DC8D6D",
"t. c #C69273",
"y. c #F49869",
"u. c #F28776",
"i. c #EF9A75",
"p. c #F69B74",
"a. c #D87C97",
"s. c #9C8D8C",
"d. c #C58886",
"f. c #D78484",
"g. c #C79392",
"h. c #D69694",
"j. c #DB9A97",
"k. c #F2998D",
"l. c #F08296",
"z. c #E39797",
"x. c #F6A487",
"c. c #EFA294",
"v. c #F2AE9B",
"b. c #CEA5A4",
"n. c #D3AAA8",
"m. c #D9B9B7",
"M. c #D8BCBC",
"N. c #E2A3A2",
"B. c #E6AFAA",
"V. c #EEB5AC",
"C. c #EEBCA9",
"Z. c #E3B6B7",
"A. c #ECBDBC",
"S. c #F4BEB5",
"D. c #F3C4A3",
"F. c #F8C2A7",
"G. c #EDC1B3",
"H. c #D9CAC9",
"J. c #D0D2D5",
"K. c #EBCCC6",
"L. c #E7C8C8",
"P. c #F1C6C1",
"I. c #F3CAC8",
"U. c #E3D2D1",
"Y. c #EAD2D2",
"T. c #EADBD9",
"R. c #F3D9D1",
"E. c #F5D8D8",
"W. c #F2E4DF",
"Q. c #E6E6E6",
"!. c #EBE5E5",
"~. c #E7E8E8",
"^. c #ECECEC",
"/. c #F4E4E2",
"(. c #F2EEEE",
"). c #FBEDEB",
"_. c #EFF0EF",
"`. c #F2F0EF",
"'. c #ECF3F4",
"]. c #EEFCFC",
"[. c #F4F3F3",
"{. c #F9F5F4",
"}. c #F2F7F8",
"|. c #F4FAFB",
" X c #FBFBFB",
".X c #F9FEFE",
"XX c #FDFDFD",
"oX c white",
/* pixels */
"oX~.[. X~.oX^.[. XQ.oX^.[.oXQ. X~.[. X~.oX^.[.oXQ.oX^.[. X~.",
" X[.[.[.[.[.[.[.[.[.[.(.[..X|..X|..X[.(.[.[.[.[.[.[.[.[.[._.",
"Q.oX[.^.oXQ. X[.^.oX^..X'.L.A.n.A.T.'.oX~. X[.^.oX!.|.[.^.oX",
"[.[.[.[.[.[.^.[.[.|.^.A.O.v c 8 x ] B.|.{.[.[.[.'.[.[.[.{._.",
"oX^.[. X~.oX^.[..XZ.X.i 7 q i t e 4 4 m.oX~.[. X~..X^.[. X~.",
"Q. X[.^.oX~. X XN.i 7 p z 1 < a s S C ^ G. X[.^.oX^.[.[._. X",
"^.{.[.'. X^. XN.5 p z 6 , s B U *.&.1.I H x.^.[.{.^.[.[._. X",
"oX^.[. XQ.oXL.4 p y 5 a M U =.,.,.,.#.B.F.P p.(.'.oX'.|. XQ.",
"[.[.[.[.[.|.f.7 p 7 a Z Y >.,.,.,.:.8.) J.D.#.y.K.R.C.G.[.[.",
"Q. X[.^.oX!.{ 8 y , M *.,.,.,.,.,.:.9.. s.D.-.:.<.7.%.i.'.oX",
" X_.}.{.^. XO.8 3 s U ,.,.,.,.:.,.;.9.t.w.7.;.2.2.,.#.R..X^.",
" X^.!. X^..XP.: % V >.,.,.,.,.,.4.,.,.7.,.,.,.,.5.9.V.|.[.^.",
"_.M.` P..X~.{._ , E ,.>.,.,.$.L -.,.>.:.2.>.,.5.F r..X[.^.oX",
"|.d.: i I.'. XM.f 1.,.,.,.-.h 6 s R 2.,.,.$.m n   a.v./.[.[.",
"oXd.4 0 b ).|.!.^ ;.,.,.4.$.i u - G 5.;.,.=.m & a.l.g R.oXQ.",
"[.d.> c 7 @.}.S.K 2.,.:.4.#.t l O R 5.;.,.,.,.2.6.H S.|.^. X",
"'.g.: u y 5 o./ &.,.,.,.,.-.k l ; R 0.;.,.,.,.<.H c. X[.(. X",
"oXb.; i 9 0 q W 2.,.,.,.,.,.Z w f T q.;.,.,.,.#.~ (.'.[. XQ.",
".XM.- i 9 0 u D ;.,.,.,.,.,.=.J Y C 7.5.;.,.5.K k.|.(.[.[.[.",
"^.U.o y y 8 b V.e.#.2.,.,.:.,.,.4.K T 0.,.2.%.[ /.^. X[.^.oX",
" X!.= 4 i 5 j..XI.! Y >.,.,.,.,.,.=.N Q 1.W g j.|.[.[.[.[.^.",
"oX(._ : i ; H.|..X .j E *.>.,.2.3.5.W j A } - f.'.oX^.[. XQ.",
"Q.oXb.O 1 ( (..XU.* @ M C K Y I P H C | G.h.> ' {.Q. X[.^.oX",
"'.{.T.# X n. X Xb.- 2 + $ d h } u.k.P.'.]...5 > E.[.[.[.[. X",
"oX^.[.m.h..X^.|.h.5 r > 2 o ( /.^.|..X~. XX.{ ` Y. X^.[..XQ.",
"(.[.[.{. X[.[.|.+.8 i i 5 3 L.|.[.[.`.{._.z.G.j.{.(.{.[._. X",
"Q..X[.^. X~.[..XB.8 7 7 t Z.oX!.{.[.^.oX~.[.!.T.oX~.|.[.^.oX",
"oX^.[. X^.oX^.[.[.f.{  .L.|.^. X_.[. X^. X(.[. X^. X(.[. X~.",
" X^.[.[.[. X(.[. X'.^.^..X[.^. X'.[.[.(. X^.[. X^. X^.[.}.(.",
"Q. X[.^.oXQ. X[.^.oX^.oX[.^.oX~. X[.^.oXQ. X[.^.oXQ. X[.^.oX"
};
