/* XPM */
static char *_61fca17d8f049f2a7a86db231c79f30s4vVVDm7wPBxYkpj[] = {
/* columns rows colors chars-per-pixel */
"30 30 194 2 ",
"   c #000205",
".  c #010509",
"X  c #040B0D",
"o  c #0A0B0C",
"O  c #000711",
"+  c #040E11",
"@  c #0A0D12",
"#  c #041314",
"$  c #0B1516",
"%  c #061419",
"&  c #0D1319",
"*  c #0C1C1D",
"=  c #051918",
"-  c #121316",
";  c #151419",
":  c #111B1D",
">  c #1B1A1D",
",  c #19171C",
"<  c #201B18",
"1  c #08211E",
"2  c #0E1C24",
"3  c #0F1F2C",
"4  c #141E21",
"5  c #1B1B21",
"6  c #0F2322",
"7  c #132224",
"8  c #1A2225",
"9  c #15242A",
"0  c #1B252A",
"q  c #152B2C",
"w  c #1A2A2B",
"e  c #1A302E",
"r  c #172A34",
"t  c #1B2B33",
"y  c #1D2F3A",
"u  c #1D3133",
"i  c #1E323A",
"p  c #24252B",
"a  c #232B2D",
"s  c #242227",
"d  c #242E32",
"f  c #2A2E33",
"g  c #232A34",
"h  c #312D31",
"j  c #253333",
"k  c #2B3436",
"l  c #22353E",
"z  c #2C353A",
"x  c #22393F",
"c  c #2D3A3C",
"v  c #343336",
"b  c #3B3235",
"n  c #32363B",
"m  c #3B363A",
"M  c #333A3D",
"N  c #3D3A3E",
"B  c #41373B",
"V  c #433A3C",
"C  c #483C3E",
"Z  c #243542",
"A  c #253943",
"S  c #2A3C43",
"D  c #273B49",
"F  c #2B3C4A",
"G  c #353E41",
"H  c #3C3D43",
"J  c #313F4C",
"K  c #433C40",
"L  c #493E42",
"P  c #2C404E",
"I  c #354044",
"U  c #3C4346",
"Y  c #33414E",
"T  c #3B4549",
"R  c #3D494D",
"E  c #3D4951",
"W  c #384553",
"Q  c #444145",
"!  c #4B4446",
"~  c #44454A",
"^  c #4B464A",
"/  c #434A4E",
"(  c #4D494E",
")  c #504043",
"_  c #514649",
"`  c #534A4D",
"'  c #584C4E",
"]  c #4E504F",
"[  c #444D52",
"{  c #4C4E53",
"}  c #534E54",
"|  c #5A4F51",
" . c #445053",
".. c #4A5255",
"X. c #4C555A",
"o. c #4D585B",
"O. c #47545A",
"+. c #545356",
"@. c #5C5153",
"#. c #54555A",
"$. c #5B555A",
"%. c #525B5D",
"&. c #5A5B5E",
"*. c #634D53",
"=. c #635457",
"-. c #625659",
";. c #635A5C",
":. c #6C5A5B",
">. c #51615E",
",. c #75625C",
"<. c #545E63",
"1. c #5C5C61",
"2. c #625C62",
"3. c #6C5E63",
"4. c #695F68",
"5. c #715A60",
"6. c #566165",
"7. c #5C6365",
"8. c #5C656B",
"9. c #5E696D",
"0. c #576667",
"q. c #5E6B71",
"w. c #636166",
"e. c #6C6266",
"r. c #646469",
"t. c #6A646B",
"y. c #626B6D",
"u. c #6B696E",
"i. c #746365",
"p. c #746568",
"a. c #7A6669",
"s. c #746A6C",
"d. c #7C6B6C",
"f. c #7D726E",
"g. c #636D72",
"h. c #6B6D72",
"j. c #716F75",
"k. c #7D6D72",
"l. c #7B6F79",
"z. c #667175",
"x. c #6D7377",
"c. c #6E7877",
"v. c #677278",
"b. c #6A737A",
"n. c #6E797D",
"m. c #737276",
"M. c #7C7272",
"N. c #72747A",
"B. c #7C727B",
"V. c #74797E",
"C. c #7A797C",
"Z. c #7E7976",
"A. c #816D6C",
"S. c #836E71",
"D. c #847374",
"F. c #8A7576",
"G. c #83767C",
"H. c #8B7579",
"J. c #8C797A",
"K. c #807B7F",
"L. c #90777D",
"P. c #927E7E",
"I. c #82817F",
"U. c #96817E",
"Y. c #6F7B81",
"T. c #747D82",
"R. c #7C7C82",
"E. c #817780",
"W. c #837D82",
"Q. c #8C7F89",
"!. c #758482",
"~. c #7F8287",
"^. c #7B848A",
"/. c #7F8A90",
"(. c #838286",
"). c #81848A",
"_. c #8C858D",
"`. c #878A8F",
"'. c #978686",
"]. c #878D92",
"[. c #8C8D92",
"{. c #938C94",
"}. c #978B95",
"|. c #869394",
" X c #8C9196",
".X c #8C9599",
"XX c #8E999D",
"oX c #949193",
"OX c #91959B",
"+X c #9B9DA3",
"@X c #98A6A5",
"#X c #ACA5AD",
"$X c #A0ABAA",
"%X c #A7B3B1",
/* pixels */
"( { ^ { r.&.K { f 9 z [ [ 8.W W <.<.g.g.q./ G  .d . 6 j |.@X",
"2.^ +.^ 1.r.r.U p f / <.X.q.X.<.<.<.8.T.Y.O.M / o.k $ j >.0.",
"w.! t.#.^ H 2.f g H 6.g.<.q.<.Y.q.q.q.v.Y.<./ [ 0.G   k j a ",
"w.^ e.2.H ; n - f #.v.Y.g.v.8.Y.Y.R.g.O.<.g.8.<.>.T c !.!.c.",
"$.$.` @.( s ,   H g.h.Y.Y.Y.g.q.^./.q.E X.z.c.y.X.j >.@X%X$X",
"C t.^ ^ $.N s ; H j.u.Y.R.`.v.q.Y.!.q.<.0.9.9.z.>.j 0.|.$X$X",
"L s.` Q $.m N h H N.j.R. XOXR.Y.g.b.z.z.z.8.6.y./ $ d ..y.c.",
"e.3.B b e.v L h h R.Y.R.OX+X].R.8.n.n.9.9.9.8.y. .4 o a a a ",
"$.k.=.| =.! +.$.  ~ #XR.).OXR.V.0.Y.v.|.z.E T I $ d ..r.w.&.",
"k.p._ ' | C B m > - +._.+X[.(.T.XXv.v.q.q.I     ..#.7.r.&.[ ",
"'.d.3.k.;.C L _ ` b @ h r.h.j. X.Xq.q.O.X.g 8 R r.6.7.u.u.>.",
"F.i.d.D.;._ =.-.2.K h b 5 K 1.#.8.6.O.E j + R y.r.&.w.N.Z.u.",
"J.i.a.a.3.i.e.@.! ` ( K N H , { R E T o.d c 8.#.N.h.x.C.W.m.",
"J.M.J.d.i.i.;.| ;.b +.^ m $.( +.% . 2 9 +  .#.X.x.m.h.t.2.2.",
"d.d.F.p.:.| C | ' ` ^ b ;.m.} ~ 4 % 4 # 7 [ %.V.7.N.m.$.! ^ ",
"'.D.D.A.J.a.L 3.i._ B V &.$.#.v # g % 2 X./ r.(.+.R.oX(.R.(.",
"d.i.5.D.H.A.*.*.S.a.b ! (.;.] $ c e   w ] ! } l.}.Q.4.u.R.j.",
"d.S.D.S.H.Q.S.5.*.a.=.-.m.U o   8 6 : / $.+.B.l.}.Q.$.4.<.H ",
"H.L.J.S.S.S.A.*.3.E.Q.R.+.f o 8 R G : N 1.h.B.-.#X}.4.R.K p ",
"A.a.A.F.H.S.A.S.k.k.Q.j.> 4 w w 6  .c a $.t.4.E.R.4.t.W./ <.",
"U.J.F.U.L.H.S.E.l.l.1.H % 4 r 2   c o.U 1.u.} R.l.2.j.2.s %.",
"U.'.U.F.A.5.5.5.E.Q.H @ 0 y 9 r 7 4 o.1.~ 1.2.4.1.~ +.f . / ",
",.A.D.d.a.d.E.G.Y.( g O 2 r y Z 4 7 { x.f 5 #.1.{ ! M $   1 ",
",.,.f.F.D.B.W.}.1.. g Z 3 y F y S T M x.[   5 @ $ 5   . o   ",
",.,.f.;.s.oXh.~ : 7 0 y Z D F P T #.G g.N.z @ 8 5 : : 0 o 1 ",
"_ @.f.Z.I.Z.M $ 0 w r y Z D F J G X.U x.C.M X 8 8 8 * w # 1 ",
"  < ] N -   . x t t y Z Z D F J T ..n x.^.T $ * 8 4 : w = 6 ",
", o o : a d w u i i l Z D F F J X.{ 8 7.].%.8 * 7 7 1 w = 1 ",
"o 8 d d w 7 q q l x A S F Y Y Y v.{ X {  Xg.j * q 6 6 e 1 q ",
"8 I U k t u I i x x S S Y W W E R.{ . U .XT.c * q 7 6 e 1 e "
};
