/* XPM */
static char *_b1d8051652d4f09fa3c2c55ccbe99c7dWFpaeYYZ7B2XWL2[] = {
/* columns rows colors chars-per-pixel */
"30 30 173 2 ",
"   c #005B8C",
".  c #005E94",
"X  c #005E98",
"o  c #016395",
"O  c #016A96",
"+  c #00649C",
"@  c #016C9D",
"#  c #01729D",
"$  c #0066A1",
"%  c #006BA4",
"&  c #006FA9",
"*  c #0173A5",
"=  c #047BA4",
"-  c #0074AB",
";  c #017BAC",
":  c #0A7EA8",
">  c #007CB2",
",  c #0281A7",
"<  c #0482AD",
"1  c #0C83AC",
"2  c #0188AD",
"3  c #1289AC",
"4  c #198EAC",
"5  c #0183B4",
"6  c #0B86B1",
"7  c #048AB5",
"8  c #0A8BB3",
"9  c #0D89B2",
"0  c #0989B5",
"q  c #0D8EB7",
"w  c #0084B8",
"e  c #0086B9",
"r  c #018BBB",
"t  c #028BBA",
"y  c #038DBA",
"u  c #058DBB",
"i  c #048EBB",
"p  c #088EB9",
"a  c #0B8EB9",
"s  c #0F8FB8",
"d  c #148EB5",
"f  c #0591BB",
"g  c #0D90B9",
"h  c #0B90BD",
"j  c #0B94BD",
"k  c #0994BE",
"l  c #0F94BD",
"z  c #1291B6",
"x  c #1C95B6",
"c  c #1394B9",
"v  c #1596BB",
"b  c #1193BE",
"n  c #1297BF",
"m  c #1695BC",
"M  c #1499BF",
"N  c #1999BE",
"B  c #1C9BBD",
"V  c #1E9CBD",
"C  c #2F97AE",
"Z  c #2293B0",
"A  c #2497B5",
"S  c #2698B3",
"D  c #2D9BB6",
"F  c #209BBB",
"G  c #269BB9",
"H  c #259EBE",
"J  c #2C9EBB",
"K  c #349FB9",
"L  c #22A0BF",
"P  c #26A3BF",
"I  c #2BA0BB",
"U  c #2DA1BD",
"Y  c #3CA1B6",
"T  c #39A3BC",
"R  c #559DAB",
"E  c #449EB5",
"W  c #4B9FB5",
"Q  c #559DB3",
"!  c #59A3AF",
"~  c #43A1B5",
"^  c #45A4BA",
"/  c #4CA5BB",
"(  c #47A9BE",
")  c #4DA9BD",
"_  c #52A3B5",
"`  c #5DA5B5",
"'  c #5DA8B7",
"]  c #56A6B9",
"[  c #59A6B9",
"{  c #55AABD",
"}  c #5CAABC",
"|  c #62ACB6",
" . c #60A7BA",
".. c #65AABC",
"X. c #6BADBD",
"o. c #64B1BC",
"O. c #6EB1BF",
"+. c #0493C1",
"@. c #0798C2",
"#. c #0B9BC3",
"$. c #1597C1",
"%. c #149DC3",
"&. c #1B9DC1",
"*. c #1D9DC3",
"=. c #13A1C6",
"-. c #17A1C6",
";. c #19A2C5",
":. c #1FA6C7",
">. c #1BA5C9",
",. c #22A1C1",
"<. c #23A3C4",
"1. c #23A5C4",
"2. c #28A3C2",
"3. c #2BA5C3",
"4. c #28A7C3",
"5. c #2DA9C7",
"6. c #2BACC7",
"7. c #25A7C9",
"8. c #27AAC9",
"9. c #26A9CA",
"0. c #2CAACA",
"q. c #35A6C2",
"w. c #38A7C1",
"e. c #34ABC7",
"r. c #3DABC4",
"t. c #32ACCA",
"y. c #3AADC9",
"u. c #36B2CE",
"i. c #3EB2CC",
"p. c #45ABC2",
"a. c #4CAEC3",
"s. c #43AFC8",
"d. c #54ACC1",
"f. c #5BAEC1",
"g. c #47B0C7",
"h. c #4DB2C7",
"j. c #42B2CA",
"k. c #4AB4CB",
"l. c #4DB8CD",
"z. c #54B2C6",
"x. c #5AB0C3",
"c. c #52B5C9",
"v. c #5DB6C9",
"b. c #53B8CB",
"n. c #5ABACC",
"m. c #56BED2",
"M. c #5CBED0",
"N. c #63B3C5",
"B. c #6CB3C4",
"V. c #6FB9C7",
"C. c #67B7C8",
"Z. c #64BACB",
"A. c #6CBACA",
"S. c #73B5C3",
"D. c #74BAC6",
"F. c #7ABBC7",
"G. c #73BDCB",
"H. c #7BBDCB",
"J. c #63BDD0",
"K. c #69BFD0",
"L. c #69C0CF",
"P. c #76C1CF",
"I. c #7BC0CD",
"U. c #6BC0D0",
"Y. c #72C3D2",
"T. c #79C3D2",
"R. c #82BECC",
"E. c #8BC3CE",
"W. c #85C5D2",
"Q. c #89C7D3",
"!. c #8EC8D4",
"~. c #91CCD7",
"^. c #9ECFD8",
/* pixels */
"3 4 A G G U G 2.L N N b u p l $.b l y 5 5 > - - % % % @ o + ",
"1 , 2 2 c v B 1.1.L 4.4.;.*.$.h i 5 > ; - - - ; > 5 6 6 1 : ",
", = , : ; , 8 B V L P P 6.6.8.:.=.+.t e > > 5 t f v F J S Z ",
"O # = : ; = = - ; < q c m m v g p 5 5 > e e e t u p a d 3 3 ",
"O O O o + * - ; ; ; - - ; ; - - - - * - - - > 5 5 7 5 7 < , ",
"# # @ @ * * - ; 5 5 ; - & - ; ; - % - - ; - & $ % % % @ @ @ ",
"= # = @ * < 6 1 6 0 q a p p e 5 > > > u u > - & % - ; ; = = ",
"3 1 1 = O * < 9 6 1 9 6 6 ; - ; > ; > - - - ; > > ; ; * * # ",
"O O @ @ O + @ % % + + + + @ % - & & % % % - > - - - * % @ + ",
"        . X o o O o + + + o + + X $ $ $ + $ $ $ + $ + + O o ",
"      . . . X X X X X X X + + + $ $ $ $ $ $ $ $ $ $ + + + . ",
"    . . X + + + + + + $ $ $ $ $ $ & $ & % % % & % % % $ + O ",
". o + + $ $ $ $ % & % % & % & - & - & - > - - & - & & % % O ",
"O + @ % & % - - - - - > > > > > > > > > > > > > > > > > - * ",
"@ * * - > > > > > > e e e e t r > +.+.> +.+.w t e e > > ; = ",
"= ; < > > w w w +.+.i +.i u +.+.r +.+.+.+.+.+.+.+.i y e 5 < ",
"; 5 5 7 u f f f j @.@.@.#.#.#.#.#.=.#.#.#.#.@.#.#.+.h h p 2 ",
"2 8 p a j l l #.#.&.%.-.-.:.;.;.>.;.;.>.>.-.>.%.%.$.N n z z ",
"d c z N M &.&.;.1.;.1.8.1.1.8.8.8.7.8.8.7.8.8.<.<.<.*.*.B x ",
"x N x B 1.,.6.2.0.5.5.4.t.t.t.t.t.5.u.t.t.t.0.0.0.2.3.H I x ",
"x H H P 4.4.e.q.e.y.i.j.r.j.r.i.j.j.j.q.i.y.y.i.j.J e.K J D ",
"D K U T r.T j.j.r.g.l.h.p.g.k.k.j.k.k.k.k.k.j.k.s.q.r.w.K K ",
"D T T T s.T r.m.b.h.n.c.h.c.a.n.c.p.c.n.M.c.s.s.p.p.p.T p.C ",
"Y p.Y Y ) a.n.h.a.h.z.z.z.z.Z.n.n.v.J.J.z.v.p.Z.n.k.n.) E ~ ",
"( ) ^ ^ ( n.v.) L.x.{ A.f.d.T.f.x.K.K.v.d.C.K.v.K.d./ E d.) ",
"~ { ~ / Z.[ / { Y.P.x.P.V.A.N.A.A.H.H.C.Z.T.Z.E N.d.d./ f.W ",
"{ o.[ { U.P.P.' A.G.V.V.H.B.D.H.G.N.G.C.B.A.Q Q Q d.C.A.} _ ",
"~ } N.[ N.[ B.P.} } V.W.[ ] Q.F.S.B.R.R.d.H.H.B.f.G.Q G.W R ",
"o.' } o.| ` G.I.B.D.B.~.O.S.H.S.S.!.R.R.f.S.F.F.H.S.H.f.R X.",
"P.! o.O.S.F.S...D.H...S.R.E.X.E.~.^.Q  .B.B.S.X.Q.S. .B.| S."
};
