/* XPM */
static char *a8e873933daf4f748845bfcceeac7901xTKJ5Qyu3GqNSFb4[] = {
/* columns rows colors chars-per-pixel */
"30 30 184 2 ",
"   c #65150E",
".  c #542617",
"X  c #6A271E",
"o  c #70211C",
"O  c #79201A",
"+  c #742E24",
"@  c #733E2E",
"#  c #7A3B32",
"$  c #862D29",
"%  c #8A312D",
"&  c #8F3733",
"*  c #843D36",
"=  c #8B3C36",
"-  c #8A3E39",
";  c #943531",
":  c #943935",
">  c #973E3C",
",  c #9B3D3B",
"<  c #8A4037",
"1  c #874539",
"2  c #8C443C",
"3  c #8D493E",
"4  c #92433D",
"5  c #9B433C",
"6  c #93493E",
"7  c #8D4940",
"8  c #974640",
"9  c #9B4541",
"0  c #944B43",
"q  c #9B4B45",
"w  c #9E4E48",
"e  c #8E5649",
"r  c #915346",
"t  c #95544A",
"y  c #9B524B",
"u  c #93594D",
"i  c #9E5C4D",
"p  c #9D5B52",
"a  c #A34544",
"s  c #AB4545",
"d  c #A34A45",
"f  c #AA4B46",
"g  c #A74748",
"h  c #AE4649",
"j  c #A44C4A",
"k  c #AB4B4B",
"l  c #B14F4D",
"z  c #A75047",
"x  c #A85147",
"c  c #A4524C",
"v  c #AC524D",
"b  c #A2584F",
"n  c #A8584F",
"m  c #B4524E",
"M  c #A55651",
"N  c #AC5552",
"B  c #A55B54",
"V  c #AB5A55",
"C  c #AC5E59",
"Z  c #B35553",
"A  c #BB5554",
"S  c #B45A54",
"D  c #BA5C57",
"F  c #B45C5A",
"G  c #BB5D5B",
"H  c #9F6156",
"J  c #A76355",
"K  c #AA6057",
"L  c #A56159",
"P  c #AC625A",
"I  c #AA6A5F",
"U  c #B3635D",
"Y  c #BB625D",
"T  c #B3685F",
"R  c #BD6A5F",
"E  c #BF5F60",
"W  c #AD6D63",
"Q  c #B56661",
"!  c #BC6461",
"~  c #B46A63",
"^  c #BB6B64",
"/  c #BD6E6A",
"(  c #B57067",
")  c #B97067",
"_  c #B4756B",
"`  c #BC726B",
"'  c #BA7A6E",
"]  c #BB7B71",
"[  c #C25D5C",
"{  c #C2625F",
"}  c #C36463",
"|  c #C36B65",
" . c #CA6A66",
".. c #C56D6B",
"X. c #CA6C6B",
"o. c #D36F6D",
"O. c #C57367",
"+. c #C3736D",
"@. c #CB726D",
"#. c #CC796E",
"$. c #D0736C",
"%. c #C57572",
"&. c #CB7672",
"*. c #C47B75",
"=. c #CB7A72",
"-. c #CC7D79",
";. c #D37673",
":. c #D37C75",
">. c #DB7A76",
",. c #D47D7A",
"<. c #DB7E7C",
"1. c #E07E7D",
"2. c #B58778",
"3. c #C98077",
"4. c #C1877B",
"5. c #CC837B",
"6. c #C18B7E",
"7. c #CD897E",
"8. c #D4827B",
"9. c #DC817D",
"0. c #C68D81",
"q. c #CD8980",
"w. c #D58581",
"e. c #DC8482",
"r. c #D58B84",
"t. c #DC8A85",
"y. c #DC8C89",
"u. c #DA9087",
"i. c #DE938C",
"p. c #DD9390",
"a. c #D69E91",
"s. c #DA9D92",
"d. c #E38483",
"f. c #E38A84",
"g. c #E48E8A",
"h. c #EC8C8A",
"j. c #F48C8D",
"k. c #E49086",
"l. c #E2948E",
"z. c #EA948C",
"x. c #EA9491",
"c. c #E49B93",
"v. c #EC9A92",
"b. c #E59E98",
"n. c #EF9F9A",
"m. c #F49493",
"M. c #FA9696",
"N. c #F39E9A",
"B. c #F59B93",
"V. c #DCA394",
"C. c #D6A996",
"Z. c #DFA599",
"A. c #E4A39B",
"S. c #EEA39C",
"D. c #E5AB9F",
"F. c #EFA99D",
"G. c #F3A19C",
"H. c #FAA19D",
"J. c #ECACA2",
"K. c #FAA3A1",
"L. c #F2ABA3",
"P. c #FAA9A5",
"I. c #F8AEA5",
"U. c #F3A5A1",
"Y. c #EBB0A2",
"T. c #EFB7AA",
"R. c #EBBAA9",
"E. c #F3B3A7",
"W. c #F7B7AD",
"Q. c #FDB4AD",
"!. c #F2BCAE",
"~. c #FEB8AE",
"^. c #FFB7B1",
"/. c #FCBBB3",
"(. c #FFBDBA",
"). c #ECC2B4",
"_. c #F3C1B6",
"`. c #FCC1B6",
"'. c #FEC4BC",
"]. c #F1CFBE",
"[. c #FDCABB",
"{. c #FFC5C2",
"}. c #FACEC1",
"|. c #FFD9CA",
/* pixels */
"|.!.J.l.P.P.K.K.(.T.Z.J.a.Y.s.J.R.C.V.V.V.a.V.E.~.i.V.Y.c.`.",
"!.] C P / M a V s.W 7 B p p 0 _ a.@ r 1 3 y + 3.t.B I ' b l.",
"/.* ^ 0 b.5.g V y W V +.L.r Q - 2 K = e.t.: { k g z P S.4 n.",
"/.5.Q *.*.] E E 5.Q N G / B - -.=.5 n X.} h h h.[ m U O.Z m.",
"'.*.j j q V Z [ p.Q k l / Q 9 e.z.d ! G }  .m m.X.D G | h j.",
"W.X / 0 p.y.k Z j B E E N.N E a > R a <.1.a } a v Z U G.> M.",
"[.u p P _ ) N &.b.C C %./ Q 8 x.g.N } X.| S j f.f.S ` r.R G.",
"[.r L r p L w +.c.w w E C / q p.8.c G } X.@.G t.t.^ / *.~ s.",
"J.X L p H S./ F q E } g g.y.Q C n c G Y H.^ Y c q P 3 5.7.5.",
"{.q.~ B W ] / Z w.w.h X.Z ! C B v.8...Y | +.N 8.l.' ( 7.T u.",
"W.r.E p ( / ..a e.%.E Z / B M E e.,.Z ..! C N -.l.6 n c $ d.",
"(.t y.] y.p.g ..U Q ..Z x.%.C E N S Z <.k.N v v 4 z c h. .9.",
"[.0.] C ] V 9 g ] 4.7 ~ W W p j g.} } [ &.v A ;.t.C n :.f 9.",
"_.6.y q / M E > q.4.7 p W p 8 M f.| g G N 5 Z $.|   6 ! % z.",
"^.o ! F <.d.h E j B E j x.U j V q n & ,.^ 0 0 4 4 6 c n.n :.",
"Q.,.<., Z E h h E e.} 1./ ! E N w.C = n y y c N y.+.M O.5 9.",
"(.-.e.> M %.E Z E d.[ o.<.+. .S 5.~ M V ,.N E A ;.v a O.x k.",
"'.# ..M y.S.a } X.g A s G.N v D V y V ..y...[ [ [ Y { z.#.:.",
"!.a.-.E ..V X.l } N.m S P ` d s ,./ q V Q 9 l F v.d ^ S x z.",
"_.] %.N ..! F k N 9.v n ` T { D / #.9 @...9 E G 8.^ z :.n 8.",
"{.- X.k y.n.9 F U j } x F.T R m S D l 9.d.X.o.>...;.F H...&.",
"(.w.X.g Q L Q w r.g.v v n I m m 9.Y S S G D A f.h.q ! ! N w.",
"{.%.X.V *.W Q Q ` t.m #.5.T Y { v.O.O.{ 8.S S =.-.B / 8.^ w.",
"/.- X.F p.b.w U n N S Y I.+.R { n R x >.B.d ^ n ~ L E U.*.r.",
"}.2.C F / B F Z x...g N B P d $.9.5 S x m m ; f.<.N U F j %.",
"}.2.W V %.%.;.l 1.! S k 3.P S $.8.O.m $.>.[  .>. .Y ..x.N w.",
"}.. B B -.p.,  .G F [ D c.P v n i J 6 3.9.D @.} <...#.G.B 5.",
").6.C 4 p y F O ,.,.m S ` J Y ! F.i J x 5 m ; @.&.d y C - ) ",
"{._ Q p ] B W U ,.,.A $.^ C R S 3.i 6 O.O.S R | X.S #.^ 6 O.",
"{.p / ^ J.0.` -.e.8.<.f.8.~ :.| O.R #.9.8.9.;.#. .O.v.n.R z."
};
