/* XPM */
static char *_5420c953faa46d2c8200c791788b9c7aVTQgxFLvI0ka65t[] = {
/* columns rows colors chars-per-pixel */
"30 30 8 1 ",
"  c black",
". c #010101",
"X c #020202",
"o c gray1",
"O c #040404",
"+ c #060606",
"@ c #070707",
"# c #0C0C0C",
/* pixels */
"    OO      O O           O   ",
"   OO                         ",
"    OO        O     O OO      ",
"             O     O OO  O    ",
"     O      O O   O  OOOO     ",
"O                   OO        ",
"      OO      O        OO O   ",
"O   O      O O  OO O          ",
"#@   O          O     O  O O  ",
"@O    O  O  O      O O    O   ",
"              O O O     O   O ",
"       O O O O       O OOOOO  ",
"  O     O O O O O   O O  OO   ",
"   O               O    O  O  ",
"O         O   O O O   O  OO   ",
"      O              O    O   ",
"              O        O  O   ",
"             O      O   O  O O",
"                      O  O OO ",
"             O O   OOOOOOOOO O",
"            O O    OOOOOO O O ",
"                OOO O OOOO O  ",
"              O OOOO OO   O   ",
"             O  OOOO          ",
"                              ",
"                              ",
"                              ",
"                              ",
"                              ",
"                              "
};
