/* XPM */
static char *_57b7d19e79d45ade148b7065e26969atxfEgwd7YCOCEllY[] = {
/* columns rows colors chars-per-pixel */
"30 30 249 2 ",
"   c #00100E",
".  c #251507",
"X  c #123100",
"o  c #30292F",
"O  c #1D142E",
"+  c #771A03",
"@  c #6B1400",
"#  c #7E383A",
"$  c #354614",
"%  c #504E02",
"&  c #416600",
"*  c #495425",
"=  c #746D3D",
"-  c #596933",
";  c #001856",
":  c #00144F",
">  c #012756",
",  c #0B3758",
"<  c #001767",
"1  c #001A7B",
"2  c #000E6B",
"3  c #002C75",
"4  c #002B7C",
"5  c #01237A",
"6  c #00327C",
"7  c #003274",
"8  c #0A2E74",
"9  c #2C3B72",
"0  c #76344D",
"q  c #753A68",
"w  c #01446E",
"e  c #2D6269",
"r  c #73495B",
"t  c #6D5173",
"y  c #487173",
"u  c #5D6D52",
"i  c #871B00",
"p  c #911900",
"a  c #872200",
"s  c #B92C11",
"d  c #B5351A",
"f  c #AF2B17",
"g  c #933433",
"h  c #AD352A",
"j  c #C4311C",
"k  c #C83428",
"l  c #AB462E",
"z  c #9E591D",
"x  c #C54534",
"c  c #CB7932",
"v  c #913852",
"b  c #BA4E41",
"n  c #1E9D34",
"m  c #28A53F",
"M  c #57AE36",
"N  c #5B9E25",
"B  c #75C53D",
"V  c #3E9B55",
"C  c #37B953",
"Z  c #37AD4D",
"A  c #3CB070",
"S  c #32917B",
"D  c #5C9747",
"F  c #55BA47",
"G  c #42A45E",
"H  c #47B75C",
"J  c #50B14D",
"K  c #6ABA52",
"L  c #538778",
"P  c #5A9574",
"I  c #6F9B70",
"U  c #58B56E",
"Y  c #4DAE6B",
"T  c #63B669",
"R  c #3BCA5E",
"E  c #32D251",
"W  c #2DCA55",
"Q  c #38CA62",
"!  c #57C455",
"~  c #40CE5E",
"^  c #4CC779",
"/  c #57C97B",
"(  c #4EC96B",
")  c #6AC96B",
"_  c #63CC76",
"`  c #6CCE70",
"'  c #9E802A",
"]  c #BE8625",
"[  c #CC9E35",
"{  c #DFFE37",
"}  c #E2E22E",
"|  c #A28F42",
" . c #ACAE53",
".. c #9D9A77",
"X. c #8FA265",
"o. c #FFBD50",
"O. c #D79D68",
"+. c #CBB061",
"@. c #B9C377",
"#. c #ADD96A",
"$. c #BBF069",
"%. c #A4DC66",
"&. c #D0D24B",
"*. c #D6EF57",
"=. c #FAEA58",
"-. c #FCF45B",
";. c #F5EF4A",
":. c #C8D865",
">. c #D8D170",
",. c #EDDC6B",
"<. c #DBFF69",
"1. c #FCF168",
"2. c #F2F36A",
"3. c #EBD754",
"4. c #001F86",
"5. c #051B95",
"6. c #022483",
"7. c #022B84",
"8. c #01268C",
"9. c #012B8C",
"0. c #0A2A89",
"q. c #02328C",
"w. c #053788",
"e. c #022593",
"r. c #012B94",
"t. c #01259B",
"y. c #022B9A",
"u. c #0C2795",
"i. c #02339B",
"p. c #013C9A",
"a. c #043795",
"s. c #143B8E",
"d. c #0A1CA2",
"f. c #0227A2",
"g. c #013AA3",
"h. c #0337A6",
"j. c #063FB0",
"k. c #06468C",
"l. c #024497",
"z. c #184C96",
"x. c #274B82",
"c. c #2A5693",
"v. c #236397",
"b. c #3D7D99",
"n. c #0844A8",
"m. c #1858A5",
"M. c #0747B3",
"N. c #0A57B8",
"B. c #1552B2",
"V. c #355BB7",
"C. c #2855A6",
"Z. c #1866AB",
"A. c #1768BB",
"S. c #166BA6",
"D. c #386EB4",
"F. c #3977B9",
"G. c #2E6EAB",
"H. c #53578D",
"J. c #6A518B",
"K. c #566498",
"L. c #557791",
"P. c #4F71AD",
"I. c #595AAA",
"U. c #1B68C1",
"Y. c #1C73DC",
"T. c #196ED1",
"R. c #2668C6",
"E. c #2B76C9",
"W. c #367AC7",
"Q. c #2677D8",
"!. c #3578D7",
"~. c #336CCA",
"^. c #1A65D0",
"/. c #4A7AD0",
"(. c #3B82B3",
"). c #55948F",
"_. c #688697",
"`. c #6C9298",
"'. c #6C9190",
"]. c #51B08F",
"[. c #4D8BB3",
"{. c #6B91B1",
"}. c #54A6A8",
"|. c #6EABB4",
" X c #53C887",
".X c #67C985",
"XX c #69D599",
"oX c #74DA9C",
"OX c #6DD48D",
"+X c #68D4A6",
"@X c #74D6AA",
"#X c #73CBBB",
"$X c #67D6B4",
"%X c #2C83D5",
"&X c #3785DB",
"*X c #368ECB",
"=X c #1D85F5",
"-X c #1B84ED",
";X c #2687E7",
":X c #258EF9",
">X c #2A98F7",
",X c #3A97FB",
"<X c #3D8CE8",
"1X c #3CA9FF",
"2X c #3AA2FC",
"3X c #3CB4FF",
"4X c #4783CD",
"5X c #4B89DF",
"6X c #4D93D7",
"7X c #5999D8",
"8X c #5392CF",
"9X c #7093C8",
"0X c #55A5D9",
"qX c #5DAECA",
"wX c #6DB3D0",
"eX c #4A8EEA",
"rX c #4398E8",
"tX c #489CF6",
"yX c #5993EA",
"uX c #49A9E8",
"iX c #5BA7E1",
"pX c #47A7FC",
"aX c #53A9FE",
"sX c #4AB6FF",
"dX c #5AB6FB",
"fX c #5BB1EE",
"gX c #68B7FD",
"hX c #70B2EC",
"jX c #74D3CC",
"kX c #78CCE2",
"lX c #79EED1",
"zX c #8DACB4",
"xX c #A1BC8D",
"cX c #DCB886",
"vX c #9CC080",
"bX c #B9C58C",
"nX c #80D8BF",
"mX c #84E1AC",
"MX c #BADAB1",
"NX c #D4D890",
"BX c #CBCCA7",
"VX c #DBEC8C",
"CX c #83A9C0",
"ZX c #86DEC6",
"AX c #81EDC3",
"SX c #87E9D8",
"DX c #8DD3F7",
"FX c #89E5E4",
"GX c #A9D8F2",
/* pixels */
"e.r.0.8.7.a.1 C.s.s.m.yX8XiXyX4X7Xv.2 1 0.e.f.f.u.4.0.7.3 6 ",
"r.r.1 0.i.9.4 /.7X/.G.4XD.F.8X(.P.G.V.V.1 6.f.t.u.4.8.7.4 7 ",
"r.0.5 0.e.r.m.5X5X6X*X0X[.S.0XiX7X8XyX/.1 9.a.r.8.8.e.r.7.k.",
"8.7.0.7.e.g.U.A.E.eX0XdXsX*XfXgXhX7XeXR.h.r.7.9.8.y.t.y.3 m.",
"7.q.e.r.n.n.A.E.eXaXuXpX2X2XpXpXuXuX%XA.M.i.7.9.e.y.t.i.< D.",
"q.7.f.h.n.N.&XrXaX,X>X>X%X,X:X1X3XsX%XT.g.i.a.7.e.u.t.8.; [.",
"q.7.h.j.N.%XaXpX,X:X:XQ.A.E.Y.>XsXsXtX!.n.h.i.e.e.u.y.4 w }.",
"9.r.f.M.T.2XpX1X:X=XQ.z.9 P.~.Y.:XpXgXeX^.j.y.e.u.e.r.3 e ].",
"u.0.h.^.&XgX1X-X=XT.H.O g # J.I.~.!.dXtXQ.N.y.y.u.u.i.: S  X",
"B.j.M.!.tXsX:X-XY.D.. O.l h v q I.P.tX1X;XN.i.i.u.u.u.> A ^ ",
"B.V.B.!.tXpX-X-XW.O  .,.c p h g v J.%X3X2XA.p.q.9.e.6.7 ].Q ",
"e.j.R.aXsX;XY.E., u >.1.] a d d h 0 D.1XsXT.l.q.9.r.1 S. XW ",
"i.p.R.tX,X:X!.x.O NX>.,.O.@ x k j g P.;XsX;XN.a.q.a.< L.U Q ",
"9.p.E.eX;XQ.V.O bX>.@.NXO.+ d s j g K.F.pX<XN.a.a.4 : [./ ~ ",
"l.l.R.tX;XR.C._.NX .* ..NXa d s d g t I.yX,X^.g.q.7 , ].^ ~ ",
"9.n.U.gXDXDX{.zXVX:.bX= >.c p d d g 0 H.eX,X^.n.7.x.e ].Q R ",
"i.M.U.dXhXDX|.vX,.=.-.3.3.] a x h g g t 4X,XT.l.C.9X'.U Q E ",
"r.n.U.uX|.|.e ..,.;.;.;.;.[ + a h b h r W.1XQ.l.P.CX).U Q E ",
"h.a.b.).P I o - +.&.&.2.*.&.[ z + i + t /.pX!.m.9XzXL Y ( Q ",
"C.7.(.].J D * - NX% % *.&.&.2.=.o.] g o F.tX!.F.9XzXP U A W ",
"0.z.G.}..XT X bXvX  $ &.+.&.&.-.;.1.BX9 W.pXA.(.9X`.P U Y C ",
"5 w.S.}..XT - xX%.X & :. .&.&.} ;.2.BX_.G.rXS.(.{.`.P U ( C ",
"8.q.k.}.@X` ) J M N M :.. z ;.} } } MXGXhXiXZ.G.{.`.P P H C ",
"e.a.w.[.#X@X_ F ! F B #.% | *.{ { <.vXwXDXhXm.z.{.`.'.P H Z ",
"t.8.q.G.kXjXOX_ ! F F M X X.*.$.*.$.U ].wX7Xn.4 L.'.`.L G C ",
"e.r.8.k.iXkXmXXX_ ) ! M D D N M B F V ].qX(.n.w., y _.'.Y Z ",
"6.0.3 3 F.jXSX@XoXOX` ! _ T J F M H Y +XqXS.l.7.> y _.L G Z ",
"5 5 3 7 S.6XkXFXAXoXoX_ H / _ ) OX X+XqX8Xl.p.4 c.L._.L V Z ",
"5.4.4 6 k.S.0XkXFXFXSXlX+XXX.XOXXX+X#XjXF.w.w.< P.`.'.y J Z ",
"d.5.3 7 4 l.*XiXwXFXFXSXlX$XoXmXmX#X|.[.k.q.s.8 P.{.L.L V n "
};
