/* XPM */
static char *_c71d1dd95a749fdfacaf7feab82d975YHFHJ3f2Y7CW1INr[] = {
/* columns rows colors chars-per-pixel */
"30 30 135 2 ",
"   c None",
".  c #75470E",
"X  c #82500E",
"o  c #8A560F",
"O  c #905100",
"+  c #9E5200",
"@  c #9C5A00",
"#  c #935B0F",
"$  c #995F0F",
"%  c #875314",
"&  c #8C5913",
"*  c #84541A",
"=  c #965D10",
"-  c #9A5F10",
";  c #935D1B",
":  c #9C610E",
">  c #9B6010",
",  c #AE6200",
"<  c #AD6B06",
"1  c #A1640F",
"2  c #AD6B0C",
"3  c #B06200",
"4  c #BB6300",
"5  c #B46900",
"6  c #BD6F00",
"7  c #BC7401",
"8  c #B9720C",
"9  c #A46511",
"0  c #A76810",
"q  c #AB6B10",
"w  c #A26419",
"e  c #AC6D1F",
"r  c #B26E11",
"t  c #B77211",
"y  c #BA7412",
"u  c #BF7811",
"i  c #B2711F",
"p  c #BB7718",
"a  c #8F5D3B",
"s  c #956127",
"d  c #9F713E",
"f  c #AB6B25",
"g  c #BD7B21",
"h  c #C36B00",
"j  c #C17300",
"k  c #CE7000",
"l  c #C47900",
"z  c #CC7C00",
"x  c #C77A09",
"c  c #D27D00",
"v  c #C07712",
"b  c #C47A12",
"n  c #CA7E14",
"m  c #CA7E1A",
"M  c #C57C28",
"N  c #B87744",
"B  c #957B68",
"V  c #C57F4C",
"C  c #CE800E",
"Z  c #D38202",
"A  c #DB8600",
"S  c #DF8800",
"D  c #D2830B",
"F  c #D8850A",
"G  c #CE8113",
"H  c #CC811C",
"J  c #D28413",
"K  c #D98713",
"L  c #DC8914",
"P  c #D3841B",
"I  c #DB8A18",
"U  c #E38E14",
"Y  c #E18E1B",
"T  c #E79015",
"R  c #CC8223",
"E  c #CF8428",
"W  c #D88B22",
"Q  c #D2862B",
"!  c #C78933",
"~  c #C48438",
"^  c #C38B3B",
"/  c #C88D3C",
"(  c #B5854E",
")  c #B89451",
"_  c #BF905A",
"`  c #9A806F",
"'  c #9E8969",
"]  c #B48D61",
"[  c #B8946F",
"{  c #AB9672",
"}  c #C68258",
"|  c #D2935B",
" . c #C7A058",
".. c #CEA65C",
"X. c #D1A85E",
"o. c #D18C6E",
"O. c #CC9971",
"+. c #D7927C",
"@. c #C0A562",
"#. c #CBAB64",
"$. c #CDA26F",
"%. c #EBC06C",
"&. c #F8D47E",
"*. c #8A8A88",
"=. c #B49886",
"-. c #CC8C80",
";. c #D09081",
":. c #DB978A",
">. c #DE998B",
",. c #E39C8B",
"<. c #C7AC84",
"1. c #CEB185",
"2. c #D9AE90",
"3. c #C4BB9E",
"4. c #C8BD99",
"5. c #E6A095",
"6. c #ECA394",
"7. c #F0A799",
"8. c #F5A99A",
"9. c #F9AC9E",
"0. c #C7BAB1",
"q. c #C1BFBD",
"w. c #CBBFB8",
"e. c #FEAFA0",
"r. c #FFB2A2",
"t. c #FFE087",
"y. c #D5CAA6",
"u. c #D9C1B4",
"i. c #E5DDB5",
"p. c #ECE1B8",
"a. c #F5E6BD",
"s. c #E2D1C7",
"d. c #E7DDD8",
"f. c #F9EEC2",
"g. c #EBE7E4",
/* pixels */
"                                                            ",
"                                                            ",
"                                  #                         ",
"                                  b r     :                 ",
"                                  u r - L J J %             ",
"                                  0 u G J 2 R j             ",
"                              :     L D J e , | *.          ",
"                            2 K 7 w J J H j 0.2.u.          ",
"                            +.5.} z n J E h d.s.w.          ",
"                            9.r.5.M Z G Q k u.g.`           ",
"                            r.8.9.o.z P P z O.q.d '         ",
"                            e.8.9.,.z P J H l =.B 3.        ",
"                            7.9.7.,.z P J P j ] y.4.        ",
"                            >.r.>.N D G J P j ( f.1.+ s     ",
"        o                   +.r.8.} Z P J R 4 1.i.~ A P J 9 ",
"          -                   e.9.6.j n m 7 _ p.<.A n G J 0 ",
"          >                   :.r.;.f < f c $.a.[ O ; J t   ",
"            9         # 2 w   a } l F J u J A {     ; $ 0   ",
"              0     1 U I L J C Z P J J J : &               ",
"                r # n J J C J K G G J J L t     *           ",
"                  y J G J y t b J G 8 Z J U = 9 y           ",
"                  q U J J J G y y F g ! Z J b J b           ",
"                  v L J J J J J y j %.@., Y J L y           ",
"                  b L G J G J J 6 X.&.    t I J v           ",
"            0 =   J J G J J n c ! t.#.      v K J           ",
"          2 J J J J J J D z m Z /  .          J n 2         ",
"        0 v J J J J n C W ^ C G x 5           n q           ",
"        U L L J G J I @ ) ..z H I p           # o           ",
"        X : . v L L 1     @ T L J 1                         ",
"                2 $         : 1                             "
};
