/* XPM */
static char *_6f938afa35f438c9c492f748063f59fMJ1vNcPNS5No5dte[] = {
/* columns rows colors chars-per-pixel */
"30 30 109 2 ",
"   c None",
".  c black",
"X  c #6D0714",
"o  c #283B4A",
"O  c #3D454A",
"+  c #535A62",
"@  c #595F65",
"#  c #546164",
"$  c #5A6167",
"%  c #5E666C",
"&  c #5F6771",
"*  c #576F78",
"=  c #60666D",
"-  c #6D666D",
";  c #61696F",
":  c #646B72",
">  c #686F76",
",  c #666F7A",
"<  c #6B7177",
"1  c #6B7279",
"2  c #72777F",
"3  c #75787F",
"4  c #B00000",
"5  c #D60002",
"6  c #F1000E",
"7  c #AA3D45",
"8  c #99777E",
"9  c #DE4D53",
"0  c #F25F64",
"q  c #757C83",
"w  c #787F87",
"e  c #777F88",
"r  c #A17980",
"t  c #7C8184",
"y  c #7C838A",
"u  c #7E8B97",
"i  c #808284",
"p  c #81868B",
"a  c #84898D",
"s  c #888B8E",
"d  c #858C94",
"f  c #898F96",
"g  c #878F99",
"h  c #918E96",
"j  c #8E9093",
"k  c #869099",
"l  c #8B939B",
"z  c #8D989E",
"x  c #929496",
"c  c #939B93",
"v  c #9C9D96",
"b  c #91979F",
"n  c #95999C",
"m  c #9A9C9D",
"M  c #A89F9F",
"N  c #BF9B96",
"B  c #B89D9F",
"V  c #A8A899",
"C  c #BBA09C",
"Z  c #B9B492",
"A  c #8D95A1",
"S  c #9197A0",
"D  c #949BA3",
"F  c #9A9EA4",
"G  c #8FA4AC",
"H  c #9AA1A7",
"J  c #90A4AD",
"K  c #9BA2AA",
"L  c #9FA7B0",
"P  c #9DAEB4",
"I  c #AEA2A2",
"U  c #A2A6AA",
"Y  c #A6A9AD",
"T  c #A9ABAC",
"R  c #B3B5AF",
"E  c #A6AEB7",
"W  c #ADAFB2",
"Q  c #ADB0B3",
"!  c #B0B3B3",
"~  c #B6B7B9",
"^  c #BBBCBD",
"/  c #DB8486",
"(  c #D58A8C",
")  c #CEB9BA",
"_  c #CCC686",
"`  c #E1D08C",
"'  c #CDC9B5",
"]  c #BDBEC1",
"[  c #C3C4C5",
"{  c #C5C7CA",
"}  c #C7C9CA",
"|  c #CACBCD",
" . c #CDCED0",
".. c #CDD1D2",
"X. c #D2D3D4",
"o. c #D6D7D9",
"O. c #D5DBDC",
"+. c #DCDDDD",
"@. c #E8DEDC",
"#. c #DEDFE0",
"$. c #DFE0E1",
"%. c #E5E5E5",
"&. c #E7E7E8",
"*. c #E7E9E9",
"=. c #ECEDED",
"-. c #F1EEED",
";. c #F2F3F3",
":. c #F5F8F9",
">. c #FEFEFE",
/* pixels */
"                                                            ",
"                                      l             ^       ",
"                        m *.x     = q , +         | >.      ",
"                          @.;.3 d l y t k ,       >.    >.{ ",
"                    %.@.  N -.N h D d v ` ' Z   X.;.@.=.o.  ",
"                      +.=.;.>.I H H z A ` _ c ! ^ Q >.%.    ",
"                      } :.>.;.:.;.%.y u d V =...^ X.:.;.;.[ ",
"                    +.%.>.:.:.%.j H U n o * ....O.=.+.      ",
"                        T *.o.1 q > o.n . X 7 / B u y       ",
"                      2 g y & l K d [ # 4 0 9 6 5 k l       ",
"                    : K H l D K b D H M ( ) z r r d D       ",
"    | X.[           D K D K D l b D l Q P P K G G K y       ",
"~ &.=.>.$.l :     > K K l y q l D l W b 2     - - @         ",
"        q F l               l K d U X.[ n                   ",
"          l K +         1 D K f F | X.o.s                   ",
"          d K %     : g E F f F |  . .]                     ",
"          D l O : A K K S d Y |  .| o.x                     ",
"        $ l : d F F D l l ^  . .} X.|                       ",
"          > l F D D d F |  .| |  .o.a                       ",
"          y D D D l D |  .| |  .X.n                         ",
"        q D D b D d [ X.| X.X.| H y d                       ",
"      d K D D D D D X.+.+.X.[ D g F L l =                   ",
"    l D b D D K f q j m n t 1 d D D D E q                   ",
"    l D D D d ;               1 D D g :                     ",
"      l K D d                 i d S F } +.T                 ",
"        q d l 1             | :. .&.>.>.=.>.]               ",
"  X.%.%.%.X. .#.            ~ >.>.>.>.>.>.=.                ",
"| ;.X.>.>.>.>.>.              p ^ X.=.%.-.X.                ",
"T $.:.>.>.>...i                                             ",
"  ! %.+.|                                                   "
};
