/* XPM */
static char *_466c6499725460cd977afdec14f2e52hh98slF8nuiG5OiS[] = {
/* columns rows colors chars-per-pixel */
"30 30 197 2 ",
"   c #74554D",
".  c #7D5E53",
"X  c #7B655B",
"o  c #AD3500",
"O  c #A32D20",
"+  c #C32C1D",
"@  c #D72618",
"#  c #D62A1E",
"$  c #D92C1E",
"%  c #D9321D",
"&  c #CE2E22",
"*  c #D52D22",
"=  c #DA2D22",
"-  c #C93124",
";  c #CD352C",
":  c #D63125",
">  c #DA3324",
",  c #D73823",
"<  c #DA3A26",
"1  c #D6362A",
"2  c #D9362B",
"3  c #D6382E",
"4  c #DA3D29",
"5  c #D53A33",
"6  c #834436",
"7  c #AB422E",
"8  c #A7502B",
"9  c #AF533B",
"0  c #B86230",
"q  c #B6733F",
"w  c #DA4329",
"e  c #DB432C",
"r  c #DB482E",
"t  c #DA562F",
"y  c #CD423A",
"u  c #CD4E38",
"i  c #D54337",
"p  c #DD4730",
"a  c #DC4B32",
"s  c #D2443D",
"d  c #DD5135",
"f  c #DE5639",
"g  c #DE5A3B",
"h  c #E15537",
"j  c #E15C3D",
"k  c #DE623A",
"l  c #E46A3C",
"z  c #96594D",
"x  c #826D5F",
"c  c #B4714A",
"v  c #AC6957",
"b  c #B27351",
"n  c #977F74",
"m  c #A37360",
"M  c #AE7D68",
"N  c #B4776D",
"B  c #CE4D45",
"V  c #D24B44",
"C  c #CE524D",
"Z  c #D95845",
"A  c #CF5651",
"S  c #D15954",
"D  c #E05F40",
"F  c #CD614B",
"G  c #DF6341",
"H  c #DF6A46",
"J  c #CC7A49",
"K  c #DE784A",
"L  c #C9645C",
"P  c #D26F53",
"I  c #D3645C",
"U  c #D17853",
"Y  c #E16443",
"T  c #E16A45",
"R  c #E26D49",
"E  c #E2734C",
"W  c #E37C4E",
"Q  c #E57A52",
"!  c #E37D52",
"~  c #CF6964",
"^  c #D36561",
"/  c #D46A63",
"(  c #D47069",
")  c #D47972",
"_  c #8B8178",
"`  c #B18263",
"'  c #B18B6E",
"]  c #AE8874",
"[  c #AB8B7B",
"{  c #B99679",
"}  c #D9864E",
"|  c #C58559",
" . c #CB895B",
".. c #D98A53",
"X. c #DE925A",
"o. c #E7854C",
"O. c #E48255",
"+. c #E98756",
"@. c #E58955",
"#. c #E88C57",
"$. c #E38658",
"%. c #E58C5A",
"&. c #E98D5B",
"*. c #E49154",
"=. c #EA9057",
"-. c #E6915B",
";. c #E9915B",
":. c #D18F67",
">. c #D79568",
",. c #DB9969",
"<. c #C48E72",
"1. c #D8837A",
"2. c #CE9973",
"3. c #C89878",
"4. c #E29664",
"5. c #7EB4B9",
"6. c #978D85",
"7. c gray62",
"8. c #A9968C",
"9. c #BA988E",
"0. c #A79D94",
"q. c #9AA29F",
"w. c #AAA397",
"e. c #A5A39B",
"r. c #B9A69E",
"t. c #89A7A8",
"y. c #93A4A1",
"u. c #9CAAA5",
"i. c #8DBABE",
"p. c #97B7BB",
"a. c #ABABA2",
"s. c #ADAFAE",
"d. c #BBADA9",
"f. c #B6B3A4",
"g. c #BCB3A4",
"h. c #B3B5AA",
"j. c #A7B7B7",
"k. c #B4B2B1",
"l. c #BCBBB3",
"z. c #B9BEB8",
"x. c #D98580",
"c. c #D88B85",
"v. c #D1938E",
"b. c #DD928D",
"n. c #C29A94",
"m. c #DF9C96",
"M. c #C7A68B",
"N. c #DDA39E",
"B. c #C2B5A9",
"V. c #D1B4B0",
"C. c #E2A8A5",
"Z. c #E5B5B2",
"A. c #B1C4BF",
"S. c #C6C1BE",
"D. c #E8C2BE",
"F. c #8FBFC9",
"G. c #9CC3C6",
"H. c #97C3CB",
"J. c #8BC8D6",
"K. c #99CAD2",
"L. c #A8C6C9",
"P. c #BCCDC8",
"I. c #AACCD3",
"U. c #B8CDD2",
"Y. c #A8D4DC",
"T. c #B6D8DB",
"R. c #ACDBE2",
"E. c #B5DCE4",
"W. c #BADDE2",
"Q. c #C8C5C4",
"!. c #D5C9C6",
"~. c #CED2CC",
"^. c #C6D6D6",
"/. c #D6D4D4",
"(. c #D1DEDC",
"). c #EAC8C4",
"_. c #ECCEC7",
"`. c #EED5CE",
"'. c #EFD4D2",
"]. c #EEDCD8",
"[. c #F3DCDA",
"{. c #F4E2DC",
"}. c #C9DFE2",
"|. c #C3E1E6",
" X c #CAE7EA",
".X c #D2ECEE",
"XX c #E9EAEA",
"oX c #F4E7E4",
"OX c #F7EDEA",
"+X c #F7F1ED",
"@X c #F9F2ED",
"#X c #E0F5F6",
"$X c #F6F6F3",
"%X c #F9F3F0",
"&X c #FCFEFD",
"*X c #FEFEFE",
"=X c white",
/* pixels */
"=X=X=X=X=X=X+XZ.) V ; % & & - y ^ N.{.&X=X=X=X=X=X=X=X=X=X=X",
"=X=X=X=XoXc.B 5 2 > > > > , % > > 3 y ( _.&X=X=X&X&X&X&X$X&X",
"=X=X=XC.C 3 % > 4 e r r a r e < < > : : s x.+X=X&XD.C.&Xv.].",
"&X%X1.i % 2 p h f j G Z Y g f a r e < > % 3 ~ [.).B C ].y L ",
"@X) 1 > 4 d Z T R E H K R R H G g d r e 2 = = I B = # ~ # # ",
"1.: > r h T R W Q ! ! $.O.! Q E R g f p r 4 > $ # * @ > i y ",
"1 > e g R E ! O.$.&.$.%.%.@.O.O.Q E Y h a e < > = V I # 1.D.",
"> 4 f H Q ! +.o.O.,.%.#.%.#.%.%.@.! W Y j a < < > 3 m.+ ).+X",
", d l W o.o.>.g.B.f.-.-.*.-.-.#.%.$.O.E Y f r w 2 = / ).+X&X",
"e h l K  .M.~.T.u.<.-.;.;.=.=.-.;.%.@.! E Y t w < > : _.&X=X",
"e P n.S.~.T. Xa.{ :.-.*.X.2.3.,.-.;.#.O.W k t w % > = b.&X&X",
"F z. XY.#XI.E.[ f.z.,.,.l.(.(.h.-.-.-.@.! d.9.A F > = S $X=X",
"M p.h.F..XH.W.A.T.J.M.h.T.A.L.e.-.-.-.#.<.T.0.r.n.1 > ; +X=X",
"z ] b t.j.I.Y.H.G.5.{ G.j.' ` >.-.&.@.>.a.E.[ U.n.> > * [.=X",
"z 8 c n . H.5.e.[ { | t.L.l.X.X.X.2.M.k.U.L.M }.L , = * '.=X",
"m s.V.8.X y.[ :.} -.3.A.U.u.-.3.B.P.L.R. Xs.` ^.u > = * '.=X",
"d.$X=XQ.x | ..&.;.,.h.|.w. .>.L.Y..XK.I.W.a.8.B.e > = & [.=X",
"/.$XXXk.m %.;.;.#. .G.|.{ 4.f.Y.K.L.q.0.u.0.6.N e > = ; @X&X",
"r.B.XX  U &.;.4.-. .p.W.S.f.G.u.8.` J J 0 F 9 B 1 > $ A &X&X",
"v 6 !.v $.%.-.%.-.X._ L.K.i.w.c ..*.-.-.Q R j r > = # b.&X=X",
"v 7 o P $.$.%.-.-.-.b [ 6.' } ;.&.#.@.O.E Y a < = = * `.&X=X",
"O r j H Q ! $.%.%.-.;...} ;.%.4.%.%.! W Y d e , * # / =X=X=X",
"2 4 p g T E Q $.$.@.%.&.#.%.%.$.$.! E Y h e , > * 1 ).&X=X=X",
"$ > 4 p f G H K W ! O.O.O.O.! Q E H Y h e > > > # 1.=X&X=X=X",
"V = > 4 r d h j T R E E E E R T H j a e 2 > $ = I oX=X=X=X=X",
"C.i = > < e r d f f j g D Y D j d e 1 > = = * S '.=X=X=X=X=X",
"XXC.V = = > > < e p r a a a p < > > > > = : A '.&X&X=X=X=X=X",
"s.=XD.A 2 $ > > > > < 1 < > 2 > > = = = 5 ) oX&X=X=X=X=X=X=X",
"7.=X&XOX1.y 5 = = = = = = = = = = = 3 A Z.=X&X=X=X=X=X=X=X=X",
"Q./.=X&X&X[.c.B & * * = = = = * ; I Z.%X=X=X=X&X=X=X=X=X=X=X"
};
